<?xml version="1.0" encoding="utf-8"?>
<!-- Generator: Adobe Illustrator 18.1.0, SVG Export Plug-In . SVG Version: 6.00 Build 0)  -->
<svg version="1.1" id="arrow_left" xmlns="http://www.w3.org/2000/svg" xmlns:xlink="http://www.w3.org/1999/xlink" x="0px" y="0px"
	 viewBox="-7058 2806.6 56.7 56.7">
<path d="M-7010.3,2829.9h-19.5l0-4.1v-5.3c0-0.2,0-0.4-0.1-0.5c0,0,0-0.1,0-0.1c0-0.1-0.1-0.3-0.2-0.4
	c0,0,0-0.1-0.1-0.1c-0.1-0.1-0.2-0.3-0.3-0.4c0,0,0,0,0,0c-0.2-0.1-0.3-0.3-0.5-0.4c-0.7-0.4-1.6-0.3-2.3,0.2l-19.9,14.5
	c-0.6,0.4-0.9,1.1-0.9,1.8c0,0.7,0.3,1.3,0.9,1.7l19.9,14.5c0.4,0.3,0.9,0.4,1.4,0.4h0c0.1,0,0.3,0,0.4-0.1c0.2,0,0.3-0.1,0.5-0.2
	c0.7-0.4,1.2-1.1,1.2-1.9l0-9.4h19.5c2.8,0,5-2.3,5-5C-7005.3,2832.2-7007.5,2829.9-7010.3,2829.9z"/>
</svg>
