<?xml version="1.0" encoding="utf-8"?>
<!-- Generator: Adobe Illustrator 18.1.0, SVG Export Plug-In . SVG Version: 6.00 Build 0)  -->
<svg version="1.1" id="arrow_right" xmlns="http://www.w3.org/2000/svg" xmlns:xlink="http://www.w3.org/1999/xlink"
     x="0px" y="0px" viewBox="-7058 2806.6 56.7 56.7">
<path d="M-7049,2840h19.5l0,4.1v5.3c0,0.2,0,0.4,0.1,0.5c0,0,0,0.1,0,0.1c0,0.1,0.1,0.3,0.2,0.4c0,0,0,0.1,0.1,0.1
	c0.1,0.1,0.2,0.3,0.3,0.4c0,0,0,0,0,0c0.1,0.1,0.3,0.3,0.5,0.4c0.7,0.4,1.6,0.3,2.3-0.2l19.9-14.5c0.6-0.4,0.9-1.1,0.9-1.8
	c0-0.7-0.3-1.3-0.9-1.7l-19.9-14.5c-0.4-0.3-0.9-0.4-1.4-0.4h0c-0.1,0-0.3,0-0.4,0.1c-0.2,0-0.3,0.1-0.5,0.2
	c-0.7,0.4-1.2,1.1-1.2,1.9l0,9.4h-19.5c-2.8,0-5,2.3-5,5C-7054,2837.7-7051.8,2840-7049,2840z"/>
</svg>
